<?xml version="1.0" encoding="utf-8"?>
<svg version="1.1" xmlns:xlink="http://www.w3.org/1999/xlink" width="20px" height="27px" xmlns="http://www.w3.org/2000/svg">
  <g transform="matrix(1 0 0 1 -986 -1070 )">
    <path d="M 5.555555555555555 13  L 18.333333333333332 13  C 18.796296296296298 13.5  19.189814814814817 13.664062499999998  19.51388888888889 13.992187500000002  C 19.837962962962965 14.3203125  20 14.718749999999998  20 15.1875  L 20 25.3125  C 20 25.78125  19.837962962962965 26.179687499999996  19.51388888888889 26.5078125  C 19.189814814814817 26.8359375  18.796296296296298 27  18.333333333333332 27  L 1.6666666666666665 27  C 1.203703703703704 27  0.8101851851851853 26.8359375  0.4861111111111111 26.5078125  C 0.16203703703703703 26.179687499999996  0 25.78125  0 25.3125  L 0 15.1875  C 0 14.718749999999998  0.16203703703703703 14.3203125  0.4861111111111111 13.992187500000002  C 0.8101851851851853 13.664062499999998  1.203703703703704 13.5  1.6666666666666665 13.5  L 2.2222222222222223 13.5  L 2.2222222222222223 7.874999999999999  C 2.2222222222222223 5.707031249999997  2.983217592592593 3.8525390624999964  4.505208333333333 2.311523437499999  C 6.027199074074074 0.7705078125000017  7.858796296296297 0  10 0  C 12.141203703703704 0  13.972800925925926 0.7705078125000017  15.494791666666668 2.311523437499999  C 17.01678240740741 3.8525390624999964  17.77777777777778 5.707031249999997  17.77777777777778 7.874999999999999  C 17.77777777777778 8.179687499999998  17.667824074074076 8.443359374999998  17.447916666666668 8.666015624999998  C 17.22800925925926 8.888671874999996  16.96759259259259 9.000000000000002  16.666666666666668 9.000000000000002  L 15.555555555555555 9.000000000000002  C 15.25462962962963 9.000000000000002  14.994212962962965 8.888671874999996  14.774305555555555 8.666015624999998  C 14.554398148148149 8.443359374999998  14.444444444444445 8.179687499999998  14.444444444444445 7.874999999999999  C 14.444444444444445 6.6328125  14.010416666666668 5.572265625000001  13.14236111111111 4.693359375  C 12.274305555555555 3.814453124999999  11.226851851851853 3.375  10 3.375  C 8.773148148148149 3.375  7.725694444444445 3.814453124999999  6.857638888888888 4.693359375  C 5.989583333333334 5.572265625000001  5.555555555555555 6.6328125  5.555555555555555 7.874999999999999  L 5.555555555555555 13  Z " fill-rule="nonzero" fill="#8080ff" stroke="none" transform="matrix(1 0 0 1 986 1070 )" />
  </g>
</svg>