<?xml version="1.0" encoding="utf-8"?>
<svg version="1.1" xmlns:xlink="http://www.w3.org/1999/xlink" width="27px" height="23px" xmlns="http://www.w3.org/2000/svg">
  <defs>
    <mask fill="white" id="clip6">
      <path d="M 14.162946428571427 22.73046875  C 13.982142857142858 22.91015625  13.761160714285715 23  13.5 23  C 13.238839285714286 23  13.017857142857144 22.91015625  12.837053571428571 22.73046875  L 3.4352678571428568 13.716145833333336  C 3.334821428571429 13.636284722222221  3.196707589285715 13.506510416666664  3.0209263392857144 13.326822916666664  C 2.8451450892857144 13.147135416666664  2.5664062500000004 12.820203993055557  2.1847098214285716 12.346028645833336  C 1.8030133928571428 11.871853298611109  1.4614955357142858 11.385199652777775  1.16015625 10.886067708333332  C 0.8588169642857142 10.38693576388889  0.5901227678571429 9.78298611111111  0.3540736607142857 9.07421875  C 0.11802455357142858 8.365451388888886  0 7.6766493055555545  0 7.0078125  C 0 4.811631944444443  0.6378348214285713 3.094618055555554  1.9135044642857142 1.8567708333333326  C 3.1891741071428577 0.6189236111111108  4.952008928571428 0  7.202008928571429 0  C 7.824776785714286 0  8.460100446428571 0.10731336805555414  9.107979910714286 0.3219401041666675  C 9.755859375 0.5365668402777758  10.358537946428571 0.8260633680555541  10.916015625 1.1904296875  C 11.47349330357143 1.5547960069444433  11.953125000000002 1.8967013888888866  12.354910714285714 2.2161458333333326  C 12.75669642857143 2.535590277777776  13.138392857142858 2.875  13.5 3.234375  C 13.861607142857142 2.875  14.243303571428573 2.535590277777776  14.645089285714286 2.2161458333333326  C 15.046875000000002 1.8967013888888866  15.526506696428573 1.5547960069444433  16.083984375 1.1904296875  C 16.641462053571427 0.8260633680555541  17.244140625 0.5365668402777758  17.892020089285715 0.3219401041666675  C 18.539899553571427 0.10731336805555414  19.175223214285715 0  19.797991071428573 0  C 22.047991071428573 0  23.810825892857146 0.6189236111111108  25.086495535714285 1.8567708333333326  C 26.36216517857143 3.094618055555554  27 4.811631944444443  27 7.0078125  C 27 9.213975694444443  25.849888392857142 11.460069444444443  23.549665178571427 13.74609375  L 14.162946428571427 22.73046875  Z " fill-rule="evenodd" />
    </mask>
  </defs>
  <g transform="matrix(1 0 0 1 -512 -1507 )">
    <path d="M 14.162946428571427 22.73046875  C 13.982142857142858 22.91015625  13.761160714285715 23  13.5 23  C 13.238839285714286 23  13.017857142857144 22.91015625  12.837053571428571 22.73046875  L 3.4352678571428568 13.716145833333336  C 3.334821428571429 13.636284722222221  3.196707589285715 13.506510416666664  3.0209263392857144 13.326822916666664  C 2.8451450892857144 13.147135416666664  2.5664062500000004 12.820203993055557  2.1847098214285716 12.346028645833336  C 1.8030133928571428 11.871853298611109  1.4614955357142858 11.385199652777775  1.16015625 10.886067708333332  C 0.8588169642857142 10.38693576388889  0.5901227678571429 9.78298611111111  0.3540736607142857 9.07421875  C 0.11802455357142858 8.365451388888886  0 7.6766493055555545  0 7.0078125  C 0 4.811631944444443  0.6378348214285713 3.094618055555554  1.9135044642857142 1.8567708333333326  C 3.1891741071428577 0.6189236111111108  4.952008928571428 0  7.202008928571429 0  C 7.824776785714286 0  8.460100446428571 0.10731336805555414  9.107979910714286 0.3219401041666675  C 9.755859375 0.5365668402777758  10.358537946428571 0.8260633680555541  10.916015625 1.1904296875  C 11.47349330357143 1.5547960069444433  11.953125000000002 1.8967013888888866  12.354910714285714 2.2161458333333326  C 12.75669642857143 2.535590277777776  13.138392857142858 2.875  13.5 3.234375  C 13.861607142857142 2.875  14.243303571428573 2.535590277777776  14.645089285714286 2.2161458333333326  C 15.046875000000002 1.8967013888888866  15.526506696428573 1.5547960069444433  16.083984375 1.1904296875  C 16.641462053571427 0.8260633680555541  17.244140625 0.5365668402777758  17.892020089285715 0.3219401041666675  C 18.539899553571427 0.10731336805555414  19.175223214285715 0  19.797991071428573 0  C 22.047991071428573 0  23.810825892857146 0.6189236111111108  25.086495535714285 1.8567708333333326  C 26.36216517857143 3.094618055555554  27 4.811631944444443  27 7.0078125  C 27 9.213975694444443  25.849888392857142 11.460069444444443  23.549665178571427 13.74609375  L 14.162946428571427 22.73046875  Z " fill-rule="nonzero" fill="#eda2ba" stroke="none" transform="matrix(1 0 0 1 512 1507 )" />
    <path d="M 14.162946428571427 22.73046875  C 13.982142857142858 22.91015625  13.761160714285715 23  13.5 23  C 13.238839285714286 23  13.017857142857144 22.91015625  12.837053571428571 22.73046875  L 3.4352678571428568 13.716145833333336  C 3.334821428571429 13.636284722222221  3.196707589285715 13.506510416666664  3.0209263392857144 13.326822916666664  C 2.8451450892857144 13.147135416666664  2.5664062500000004 12.820203993055557  2.1847098214285716 12.346028645833336  C 1.8030133928571428 11.871853298611109  1.4614955357142858 11.385199652777775  1.16015625 10.886067708333332  C 0.8588169642857142 10.38693576388889  0.5901227678571429 9.78298611111111  0.3540736607142857 9.07421875  C 0.11802455357142858 8.365451388888886  0 7.6766493055555545  0 7.0078125  C 0 4.811631944444443  0.6378348214285713 3.094618055555554  1.9135044642857142 1.8567708333333326  C 3.1891741071428577 0.6189236111111108  4.952008928571428 0  7.202008928571429 0  C 7.824776785714286 0  8.460100446428571 0.10731336805555414  9.107979910714286 0.3219401041666675  C 9.755859375 0.5365668402777758  10.358537946428571 0.8260633680555541  10.916015625 1.1904296875  C 11.47349330357143 1.5547960069444433  11.953125000000002 1.8967013888888866  12.354910714285714 2.2161458333333326  C 12.75669642857143 2.535590277777776  13.138392857142858 2.875  13.5 3.234375  C 13.861607142857142 2.875  14.243303571428573 2.535590277777776  14.645089285714286 2.2161458333333326  C 15.046875000000002 1.8967013888888866  15.526506696428573 1.5547960069444433  16.083984375 1.1904296875  C 16.641462053571427 0.8260633680555541  17.244140625 0.5365668402777758  17.892020089285715 0.3219401041666675  C 18.539899553571427 0.10731336805555414  19.175223214285715 0  19.797991071428573 0  C 22.047991071428573 0  23.810825892857146 0.6189236111111108  25.086495535714285 1.8567708333333326  C 26.36216517857143 3.094618055555554  27 4.811631944444443  27 7.0078125  C 27 9.213975694444443  25.849888392857142 11.460069444444443  23.549665178571427 13.74609375  L 14.162946428571427 22.73046875  Z " stroke-width="2" stroke="#fafafa" fill="none" transform="matrix(1 0 0 1 512 1507 )" mask="url(#clip6)" />
  </g>
</svg>