<?xml version="1.0" encoding="utf-8"?>
<svg version="1.1" xmlns:xlink="http://www.w3.org/1999/xlink" width="28px" height="28px" xmlns="http://www.w3.org/2000/svg">
  <g transform="matrix(1 0 0 1 -1237 -2516 )">
    <path d="M 17.299479166666664 17.299479166666668  C 18.2109375 16.388020833333332  18.666666666666664 15.288194444444443  18.666666666666664 14  C 18.666666666666664 12.711805555555554  18.2109375 11.611979166666666  17.299479166666664 10.700520833333334  C 16.388020833333336 9.7890625  15.288194444444446 9.333333333333334  14 9.333333333333334  C 12.711805555555557 9.333333333333334  11.611979166666668 9.7890625  10.700520833333332 10.700520833333334  C 9.7890625 11.611979166666666  9.333333333333332 12.711805555555554  9.333333333333332 14  C 9.333333333333332 15.288194444444443  9.7890625 16.388020833333332  10.700520833333332 17.299479166666668  C 11.611979166666668 18.2109375  12.711805555555557 18.666666666666668  14 18.666666666666668  C 15.288194444444446 18.666666666666668  16.388020833333336 18.2109375  17.299479166666664 17.299479166666668  Z M 19.0859375 8.9140625  C 20.483506944444446 10.311631944444441  21.182291666666664 12.006944444444441  21.182291666666664 14  C 21.182291666666664 15.993055555555557  20.483506944444446 17.688368055555557  19.0859375 19.0859375  C 17.688368055555557 20.483506944444443  15.993055555555557 21.182291666666664  14 21.182291666666664  C 12.006944444444445 21.182291666666664  10.311631944444445 20.483506944444443  8.9140625 19.0859375  C 7.516493055555556 17.688368055555557  6.817708333333334 15.993055555555557  6.817708333333334 14  C 6.817708333333334 12.006944444444441  7.516493055555556 10.311631944444441  8.9140625 8.9140625  C 10.311631944444445 7.516493055555554  12.006944444444445 6.817708333333334  14 6.817708333333334  C 15.993055555555557 6.817708333333334  17.688368055555557 7.516493055555554  19.0859375 8.9140625  Z M 22.658854166666664 5.341145833333334  C 22.986979166666664 5.669270833333334  23.151041666666664 6.064236111111109  23.151041666666664 6.526041666666666  C 23.151041666666664 6.987847222222221  22.986979166666664 7.3828125  22.658854166666664 7.7109375  C 22.330729166666664 8.0390625  21.93576388888889 8.203125  21.473958333333336 8.203125  C 21.01215277777778 8.203125  20.6171875 8.0390625  20.2890625 7.7109375  C 19.9609375 7.3828125  19.796875 6.987847222222221  19.796875 6.526041666666666  C 19.796875 6.064236111111109  19.9609375 5.669270833333334  20.2890625 5.341145833333334  C 20.6171875 5.013020833333334  21.01215277777778 4.848958333333334  21.473958333333336 4.848958333333334  C 21.93576388888889 4.848958333333334  22.330729166666664 5.013020833333334  22.658854166666664 5.341145833333334  Z M 15.39453125 2.5065104166666656  C 14.549913194444446 2.512586805555553  14.085069444444446 2.515625  14 2.515625  C 13.914930555555557 2.515625  13.450086805555557 2.512586805555553  12.60546875 2.5065104166666656  C 11.760850694444445 2.500434027777775  11.119791666666668 2.500434027777775  10.682291666666668 2.5065104166666656  C 10.244791666666668 2.512586805555553  9.65842013888889 2.530815972222222  8.923177083333332 2.5611979166666656  C 8.18793402777778 2.5915798611111094  7.562065972222223 2.65234375  7.045572916666667 2.7434895833333344  C 6.529079861111112 2.8346354166666656  6.094618055555556 2.9470486111111094  5.7421875 3.0807291666666656  C 5.134548611111112 3.323784722222222  4.599826388888889 3.676215277777775  4.138020833333334 4.138020833333334  C 3.676215277777778 4.5998263888888875  3.3237847222222223 5.134548611111109  3.080729166666667 5.7421875  C 2.947048611111111 6.094618055555554  2.834635416666667 6.529079861111109  2.743489583333333 7.045572916666666  C 2.65234375 7.562065972222221  2.591579861111111 8.187934027777775  2.561197916666667 8.923177083333334  C 2.5308159722222223 9.658420138888888  2.512586805555556 10.244791666666666  2.506510416666667 10.682291666666666  C 2.500434027777778 11.119791666666666  2.500434027777778 11.760850694444441  2.506510416666667 12.60546875  C 2.512586805555556 13.450086805555554  2.515625 13.914930555555554  2.515625 14  C 2.515625 14.085069444444443  2.512586805555556 14.549913194444443  2.506510416666667 15.39453125  C 2.500434027777778 16.239149305555557  2.500434027777778 16.880208333333332  2.506510416666667 17.317708333333332  C 2.512586805555556 17.755208333333332  2.5308159722222223 18.341579861111107  2.561197916666667 19.076822916666668  C 2.591579861111111 19.812065972222218  2.65234375 20.437934027777775  2.743489583333333 20.954427083333332  C 2.834635416666667 21.470920138888886  2.947048611111111 21.90538194444444  3.080729166666667 22.2578125  C 3.3237847222222223 22.865451388888886  3.676215277777778 23.400173611111114  4.138020833333334 23.861979166666664  C 4.599826388888889 24.32378472222222  5.134548611111112 24.67621527777778  5.7421875 24.919270833333336  C 6.094618055555556 25.052951388888886  6.529079861111112 25.165364583333336  7.045572916666667 25.256510416666664  C 7.562065972222223 25.34765625  8.18793402777778 25.408420138888886  8.923177083333332 25.438802083333336  C 9.65842013888889 25.46918402777778  10.244791666666668 25.487413194444446  10.682291666666668 25.493489583333336  C 11.119791666666668 25.49956597222222  11.760850694444445 25.49956597222222  12.60546875 25.493489583333336  C 13.450086805555557 25.487413194444446  13.914930555555557 25.484375  14 25.484375  C 14.085069444444446 25.484375  14.549913194444446 25.487413194444446  15.39453125 25.493489583333336  C 16.239149305555557 25.49956597222222  16.880208333333336 25.49956597222222  17.317708333333336 25.493489583333336  C 17.755208333333336 25.487413194444446  18.341579861111114 25.46918402777778  19.076822916666664 25.438802083333336  C 19.812065972222225 25.408420138888886  20.43793402777778 25.34765625  20.954427083333336 25.256510416666664  C 21.47092013888889 25.165364583333336  21.905381944444446 25.052951388888886  22.2578125 24.919270833333336  C 22.86545138888889 24.67621527777778  23.400173611111114 24.32378472222222  23.861979166666664 23.861979166666664  C 24.323784722222225 23.400173611111114  24.67621527777778 22.865451388888886  24.919270833333336 22.2578125  C 25.05295138888889 21.90538194444444  25.165364583333336 21.470920138888886  25.256510416666664 20.954427083333332  C 25.34765625 20.437934027777775  25.40842013888889 19.812065972222218  25.438802083333336 19.076822916666668  C 25.46918402777778 18.341579861111107  25.487413194444446 17.755208333333332  25.493489583333336 17.317708333333332  C 25.499565972222225 16.880208333333332  25.499565972222225 16.239149305555557  25.493489583333336 15.39453125  C 25.487413194444446 14.549913194444443  25.484375 14.085069444444443  25.484375 14  C 25.484375 13.914930555555554  25.487413194444446 13.450086805555554  25.493489583333336 12.60546875  C 25.499565972222225 11.760850694444441  25.499565972222225 11.119791666666666  25.493489583333336 10.682291666666666  C 25.487413194444446 10.244791666666666  25.46918402777778 9.658420138888888  25.438802083333336 8.923177083333334  C 25.40842013888889 8.187934027777775  25.34765625 7.562065972222221  25.256510416666664 7.045572916666666  C 25.165364583333336 6.529079861111109  25.05295138888889 6.094618055555554  24.919270833333336 5.7421875  C 24.67621527777778 5.134548611111109  24.323784722222225 4.5998263888888875  23.861979166666664 4.138020833333334  C 23.400173611111114 3.676215277777775  22.86545138888889 3.323784722222222  22.2578125 3.0807291666666656  C 21.905381944444446 2.9470486111111094  21.47092013888889 2.8346354166666656  20.954427083333336 2.7434895833333344  C 20.43793402777778 2.65234375  19.812065972222225 2.5915798611111094  19.076822916666664 2.5611979166666656  C 18.341579861111114 2.530815972222222  17.755208333333336 2.512586805555553  17.317708333333336 2.5065104166666656  C 16.880208333333336 2.500434027777775  16.239149305555557 2.500434027777775  15.39453125 2.5065104166666656  Z M 27.908854166666664 8.221354166666666  C 27.969618055555554 9.290798611111109  28 11.217013888888888  28 14  C 28 16.782986111111114  27.969618055555554 18.709201388888886  27.908854166666664 19.778645833333332  C 27.78732638888889 22.306423611111114  27.033854166666664 24.263020833333336  25.6484375 25.6484375  C 24.263020833333336 27.033854166666664  22.306423611111114 27.787326388888886  19.778645833333336 27.908854166666664  C 18.70920138888889 27.969618055555554  16.782986111111114 28  14 28  C 11.21701388888889 28  9.29079861111111 27.969618055555554  8.221354166666668 27.908854166666664  C 5.69357638888889 27.787326388888886  3.736979166666667 27.033854166666664  2.3515625 25.6484375  C 0.9661458333333334 24.263020833333336  0.21267361111111113 22.306423611111114  0.09114583333333334 19.778645833333332  C 0.03038194444444444 18.709201388888886  0 16.782986111111114  0 14  C 0 11.217013888888888  0.03038194444444444 9.290798611111109  0.09114583333333334 8.221354166666666  C 0.21267361111111113 5.6935763888888875  0.9661458333333334 3.7369791666666656  2.3515625 2.3515625  C 3.736979166666667 0.9661458333333344  5.69357638888889 0.21267361111110938  8.221354166666668 0.09114583333333437  C 9.29079861111111 0.030381944444440645  11.21701388888889 0  14 0  C 16.782986111111114 0  18.70920138888889 0.030381944444440645  19.778645833333336 0.09114583333333437  C 22.306423611111114 0.21267361111110938  24.263020833333336 0.9661458333333344  25.6484375 2.3515625  C 27.033854166666664 3.7369791666666656  27.78732638888889 5.6935763888888875  27.908854166666664 8.221354166666666  Z " fill-rule="nonzero" fill="#fafafa" stroke="none" transform="matrix(1 0 0 1 1237 2516 )" />
  </g>
</svg>