<?xml version="1.0" encoding="utf-8"?>
<svg version="1.1" xmlns:xlink="http://www.w3.org/1999/xlink" width="23px" height="17px" xmlns="http://www.w3.org/2000/svg">
  <defs>
    <mask fill="white" id="clip4">
      <path d="M 7.314754098360655 13.647016011644832  C 7.314754098360655 13.754245511887433  7.272859744990894 13.849102377486656  7.189071038251366 13.931586608442503  L 6.560655737704918 14.550218340611353  C 6.476867030965392 14.632702571567203  6.380510018214937 14.673944687045124  6.271584699453552 14.673944687045124  C 6.162659380692168 14.673944687045124  6.066302367941713 14.632702571567203  5.982513661202186 14.550218340611353  L 0.12568306010928962 8.784570596797671  C 0.041894353369763236 8.702086365841822  0 8.607229500242601  0 8.5  C 0 8.392770499757399  0.041894353369763236 8.297913634158174  0.12568306010928962 8.215429403202329  L 5.982513661202186 2.4497816593886466  C 6.066302367941713 2.367297428432798  6.162659380692168 2.3260553129548764  6.271584699453552 2.3260553129548764  C 6.380510018214937 2.3260553129548764  6.476867030965392 2.367297428432798  6.560655737704918 2.4497816593886466  L 7.189071038251366 3.0684133915574967  C 7.272859744990894 3.150897622513341  7.314754098360655 3.245754488112565  7.314754098360655 3.352983988355168  C 7.314754098360655 3.4602134885977653  7.272859744990894 3.555070354196991  7.189071038251366 3.6375545851528392  L 2.249726775956284 8.5  L 7.189071038251366 13.362445414847162  C 7.272859744990894 13.44492964580301  7.314754098360655 13.53978651140223  7.314754098360655 13.647016011644832  Z M 14.58551912568306 0.42685589519650613  C 14.639981785063753 0.521712760795728  14.650455373406194 0.6227559437166414  14.616939890710382 0.7299854439592426  L 9.92896174863388 16.70305676855895  C 9.895446265938071 16.810286268801555  9.830510018214937 16.890708393983505  9.734153005464481 16.944323144104803  C 9.637795992714025 16.997937894226105  9.539344262295081 17.008248423095587  9.438797814207652 16.975254730713246  L 8.659562841530056 16.764919941775837  C 8.550637522768671 16.731926249393496  8.468943533697633 16.66800097040272  8.41448087431694 16.573144104803493  C 8.360018214936249 16.478287239204267  8.349544626593808 16.37724405628336  8.383060109289618 16.270014556040756  L 13.071038251366119 0.2969432314410487  C 13.10455373406193 0.1897137311984457  13.169489981785066 0.10929160601649579  13.265846994535519 0.05567685589519711  C 13.362204007285975 0.0020621057738946513  13.460655737704919 -0.008248423095586155  13.56120218579235 0.02474526928675469  L 14.340437158469944 0.2350800582241639  C 14.449362477231332 0.2680737506064991  14.53105646630237 0.33199902959728234  14.58551912568306 0.42685589519650613  Z M 23 8.5  C 23.000000000000004 8.607229500242601  22.95810564663024 8.702086365841822  22.87431693989071 8.784570596797671  L 17.017486338797813 14.550218340611353  C 16.93369763205829 14.632702571567203  16.837340619307835 14.673944687045124  16.728415300546448 14.673944687045124  C 16.619489981785065 14.673944687045124  16.52313296903461 14.632702571567203  16.43934426229508 14.550218340611353  L 15.810928961748633 13.931586608442503  C 15.72714025500911 13.849102377486656  15.685245901639343 13.754245511887433  15.685245901639343 13.647016011644832  C 15.685245901639343 13.53978651140223  15.72714025500911 13.44492964580301  15.810928961748633 13.362445414847162  L 20.750273224043713 8.5  L 15.810928961748633 3.6375545851528392  C 15.72714025500911 3.555070354196991  15.685245901639343 3.4602134885977653  15.685245901639343 3.352983988355168  C 15.685245901639343 3.245754488112565  15.72714025500911 3.150897622513341  15.810928961748633 3.0684133915574967  L 16.43934426229508 2.4497816593886466  C 16.52313296903461 2.367297428432798  16.619489981785065 2.3260553129548764  16.728415300546448 2.3260553129548764  C 16.837340619307835 2.3260553129548764  16.93369763205829 2.367297428432798  17.017486338797813 2.4497816593886466  L 22.87431693989071 8.215429403202329  C 22.95810564663024 8.297913634158174  23.000000000000004 8.392770499757399  23 8.5  Z " fill-rule="evenodd" />
    </mask>
  </defs>
  <g transform="matrix(1 0 0 1 -418 -1074 )">
    <path d="M 7.314754098360655 13.647016011644832  C 7.314754098360655 13.754245511887433  7.272859744990894 13.849102377486656  7.189071038251366 13.931586608442503  L 6.560655737704918 14.550218340611353  C 6.476867030965392 14.632702571567203  6.380510018214937 14.673944687045124  6.271584699453552 14.673944687045124  C 6.162659380692168 14.673944687045124  6.066302367941713 14.632702571567203  5.982513661202186 14.550218340611353  L 0.12568306010928962 8.784570596797671  C 0.041894353369763236 8.702086365841822  0 8.607229500242601  0 8.5  C 0 8.392770499757399  0.041894353369763236 8.297913634158174  0.12568306010928962 8.215429403202329  L 5.982513661202186 2.4497816593886466  C 6.066302367941713 2.367297428432798  6.162659380692168 2.3260553129548764  6.271584699453552 2.3260553129548764  C 6.380510018214937 2.3260553129548764  6.476867030965392 2.367297428432798  6.560655737704918 2.4497816593886466  L 7.189071038251366 3.0684133915574967  C 7.272859744990894 3.150897622513341  7.314754098360655 3.245754488112565  7.314754098360655 3.352983988355168  C 7.314754098360655 3.4602134885977653  7.272859744990894 3.555070354196991  7.189071038251366 3.6375545851528392  L 2.249726775956284 8.5  L 7.189071038251366 13.362445414847162  C 7.272859744990894 13.44492964580301  7.314754098360655 13.53978651140223  7.314754098360655 13.647016011644832  Z M 14.58551912568306 0.42685589519650613  C 14.639981785063753 0.521712760795728  14.650455373406194 0.6227559437166414  14.616939890710382 0.7299854439592426  L 9.92896174863388 16.70305676855895  C 9.895446265938071 16.810286268801555  9.830510018214937 16.890708393983505  9.734153005464481 16.944323144104803  C 9.637795992714025 16.997937894226105  9.539344262295081 17.008248423095587  9.438797814207652 16.975254730713246  L 8.659562841530056 16.764919941775837  C 8.550637522768671 16.731926249393496  8.468943533697633 16.66800097040272  8.41448087431694 16.573144104803493  C 8.360018214936249 16.478287239204267  8.349544626593808 16.37724405628336  8.383060109289618 16.270014556040756  L 13.071038251366119 0.2969432314410487  C 13.10455373406193 0.1897137311984457  13.169489981785066 0.10929160601649579  13.265846994535519 0.05567685589519711  C 13.362204007285975 0.0020621057738946513  13.460655737704919 -0.008248423095586155  13.56120218579235 0.02474526928675469  L 14.340437158469944 0.2350800582241639  C 14.449362477231332 0.2680737506064991  14.53105646630237 0.33199902959728234  14.58551912568306 0.42685589519650613  Z M 23 8.5  C 23.000000000000004 8.607229500242601  22.95810564663024 8.702086365841822  22.87431693989071 8.784570596797671  L 17.017486338797813 14.550218340611353  C 16.93369763205829 14.632702571567203  16.837340619307835 14.673944687045124  16.728415300546448 14.673944687045124  C 16.619489981785065 14.673944687045124  16.52313296903461 14.632702571567203  16.43934426229508 14.550218340611353  L 15.810928961748633 13.931586608442503  C 15.72714025500911 13.849102377486656  15.685245901639343 13.754245511887433  15.685245901639343 13.647016011644832  C 15.685245901639343 13.53978651140223  15.72714025500911 13.44492964580301  15.810928961748633 13.362445414847162  L 20.750273224043713 8.5  L 15.810928961748633 3.6375545851528392  C 15.72714025500911 3.555070354196991  15.685245901639343 3.4602134885977653  15.685245901639343 3.352983988355168  C 15.685245901639343 3.245754488112565  15.72714025500911 3.150897622513341  15.810928961748633 3.0684133915574967  L 16.43934426229508 2.4497816593886466  C 16.52313296903461 2.367297428432798  16.619489981785065 2.3260553129548764  16.728415300546448 2.3260553129548764  C 16.837340619307835 2.3260553129548764  16.93369763205829 2.367297428432798  17.017486338797813 2.4497816593886466  L 22.87431693989071 8.215429403202329  C 22.95810564663024 8.297913634158174  23.000000000000004 8.392770499757399  23 8.5  Z " fill-rule="nonzero" fill="#ffc865" stroke="none" transform="matrix(1 0 0 1 418 1074 )" />
    <path d="M 7.314754098360655 13.647016011644832  C 7.314754098360655 13.754245511887433  7.272859744990894 13.849102377486656  7.189071038251366 13.931586608442503  L 6.560655737704918 14.550218340611353  C 6.476867030965392 14.632702571567203  6.380510018214937 14.673944687045124  6.271584699453552 14.673944687045124  C 6.162659380692168 14.673944687045124  6.066302367941713 14.632702571567203  5.982513661202186 14.550218340611353  L 0.12568306010928962 8.784570596797671  C 0.041894353369763236 8.702086365841822  0 8.607229500242601  0 8.5  C 0 8.392770499757399  0.041894353369763236 8.297913634158174  0.12568306010928962 8.215429403202329  L 5.982513661202186 2.4497816593886466  C 6.066302367941713 2.367297428432798  6.162659380692168 2.3260553129548764  6.271584699453552 2.3260553129548764  C 6.380510018214937 2.3260553129548764  6.476867030965392 2.367297428432798  6.560655737704918 2.4497816593886466  L 7.189071038251366 3.0684133915574967  C 7.272859744990894 3.150897622513341  7.314754098360655 3.245754488112565  7.314754098360655 3.352983988355168  C 7.314754098360655 3.4602134885977653  7.272859744990894 3.555070354196991  7.189071038251366 3.6375545851528392  L 2.249726775956284 8.5  L 7.189071038251366 13.362445414847162  C 7.272859744990894 13.44492964580301  7.314754098360655 13.53978651140223  7.314754098360655 13.647016011644832  Z " stroke-width="22" stroke="#ffc865" fill="none" transform="matrix(1 0 0 1 418 1074 )" mask="url(#clip4)" />
    <path d="M 14.58551912568306 0.42685589519650613  C 14.639981785063753 0.521712760795728  14.650455373406194 0.6227559437166414  14.616939890710382 0.7299854439592426  L 9.92896174863388 16.70305676855895  C 9.895446265938071 16.810286268801555  9.830510018214937 16.890708393983505  9.734153005464481 16.944323144104803  C 9.637795992714025 16.997937894226105  9.539344262295081 17.008248423095587  9.438797814207652 16.975254730713246  L 8.659562841530056 16.764919941775837  C 8.550637522768671 16.731926249393496  8.468943533697633 16.66800097040272  8.41448087431694 16.573144104803493  C 8.360018214936249 16.478287239204267  8.349544626593808 16.37724405628336  8.383060109289618 16.270014556040756  L 13.071038251366119 0.2969432314410487  C 13.10455373406193 0.1897137311984457  13.169489981785066 0.10929160601649579  13.265846994535519 0.05567685589519711  C 13.362204007285975 0.0020621057738946513  13.460655737704919 -0.008248423095586155  13.56120218579235 0.02474526928675469  L 14.340437158469944 0.2350800582241639  C 14.449362477231332 0.2680737506064991  14.53105646630237 0.33199902959728234  14.58551912568306 0.42685589519650613  Z " stroke-width="22" stroke="#ffc865" fill="none" transform="matrix(1 0 0 1 418 1074 )" mask="url(#clip4)" />
    <path d="M 23 8.5  C 23.000000000000004 8.607229500242601  22.95810564663024 8.702086365841822  22.87431693989071 8.784570596797671  L 17.017486338797813 14.550218340611353  C 16.93369763205829 14.632702571567203  16.837340619307835 14.673944687045124  16.728415300546448 14.673944687045124  C 16.619489981785065 14.673944687045124  16.52313296903461 14.632702571567203  16.43934426229508 14.550218340611353  L 15.810928961748633 13.931586608442503  C 15.72714025500911 13.849102377486656  15.685245901639343 13.754245511887433  15.685245901639343 13.647016011644832  C 15.685245901639343 13.53978651140223  15.72714025500911 13.44492964580301  15.810928961748633 13.362445414847162  L 20.750273224043713 8.5  L 15.810928961748633 3.6375545851528392  C 15.72714025500911 3.555070354196991  15.685245901639343 3.4602134885977653  15.685245901639343 3.352983988355168  C 15.685245901639343 3.245754488112565  15.72714025500911 3.150897622513341  15.810928961748633 3.0684133915574967  L 16.43934426229508 2.4497816593886466  C 16.52313296903461 2.367297428432798  16.619489981785065 2.3260553129548764  16.728415300546448 2.3260553129548764  C 16.837340619307835 2.3260553129548764  16.93369763205829 2.367297428432798  17.017486338797813 2.4497816593886466  L 22.87431693989071 8.215429403202329  C 22.95810564663024 8.297913634158174  23.000000000000004 8.392770499757399  23 8.5  Z " stroke-width="22" stroke="#ffc865" fill="none" transform="matrix(1 0 0 1 418 1074 )" mask="url(#clip4)" />
  </g>
</svg>