<?xml version="1.0" encoding="utf-8"?>
<svg version="1.1" xmlns:xlink="http://www.w3.org/1999/xlink" width="14px" height="28px" xmlns="http://www.w3.org/2000/svg">
  <g transform="matrix(1 0 0 1 -1193 -2516 )">
    <path d="M 10.305555555555557 0  C 11.893518518518519 0  13.125 0.06730769230769207  14 0.2019230769230762  L 14 4.644230769230768  L 11.456018518518519 4.644230769230768  C 10.527006172839508 4.644230769230768  9.900462962962964 4.846153846153848  9.57638888888889 5.25  C 9.252314814814815 5.653846153846152  9.090277777777779 6.259615384615384  9.090277777777779 7.067307692307692  L 9.090277777777779 10.247596153846153  L 13.837962962962964 10.247596153846153  L 13.206018518518519 15.228365384615383  L 9 15.228365384615383  L 9 28  L 4.131944444444445 28  L 4.131944444444445 15.228365384615383  L 0 15.228365384615383  L 0 10.247596153846153  L 4.131944444444445 10.247596153846153  L 4.131944444444445 6.579326923076923  C 4.131944444444445 4.49278846153846  4.693672839506173 2.8745993589743577  5.81712962962963 1.7247596153846159  C 6.940586419753087 0.574919871794874  8.43672839506173 0  10.305555555555557 0  Z " fill-rule="nonzero" fill="#fafafa" stroke="none" transform="matrix(1 0 0 1 1193 2516 )" />
  </g>
</svg>