<?xml version="1.0" encoding="utf-8"?>
<svg version="1.1" xmlns:xlink="http://www.w3.org/1999/xlink" width="30px" height="25px" xmlns="http://www.w3.org/2000/svg">
  <defs>
    <mask fill="white" id="clip14">
      <path d="M 15.736607142857142 24.70703125  C 15.535714285714286 24.90234375  15.290178571428573 25  15 25  C 14.709821428571429 25  14.464285714285715 24.90234375  14.263392857142856 24.70703125  L 3.8169642857142856 14.908854166666668  C 3.7053571428571432 14.82204861111111  3.551897321428572 14.680989583333332  3.356584821428571 14.485677083333332  C 3.1612723214285716 14.290364583333332  2.8515625000000004 13.935004340277779  2.427455357142857 13.419596354166668  C 2.0033482142857144 12.904188368055552  1.6238839285714286 12.375217013888888  1.2890625 11.832682291666666  C 0.9542410714285714 11.290147569444445  0.6556919642857143 10.633680555555555  0.3934151785714286 9.86328125  C 0.13113839285714285 9.092881944444443  0 8.344184027777777  0 7.6171875  C 0 5.230034722222221  0.708705357142857 3.3637152777777763  2.126116071428571 2.0182291666666656  C 3.543526785714286 0.6727430555555552  5.502232142857142 0  8.002232142857144 0  C 8.694196428571429 0  9.400111607142856 0.11664496527777624  10.119977678571429 0.34993489583333426  C 10.83984375 0.5832248263888867  11.509486607142856 0.8978949652777762  12.12890625 1.2939453125  C 12.748325892857146 1.689995659722221  13.281250000000004 2.061631944444442  13.727678571428571 2.4088541666666656  C 14.174107142857144 2.7560763888888866  14.598214285714285 3.125  15 3.515625  C 15.401785714285714 3.125  15.82589285714286 2.7560763888888866  16.27232142857143 2.4088541666666656  C 16.718750000000004 2.061631944444442  17.251674107142858 1.689995659722221  17.87109375 1.2939453125  C 18.490513392857142 0.8978949652777762  19.16015625 0.5832248263888867  19.88002232142857 0.34993489583333426  C 20.599888392857142 0.11664496527777624  21.305803571428573 0  21.997767857142858 0  C 24.497767857142858 0  26.45647321428572 0.6727430555555552  27.87388392857143 2.0182291666666656  C 29.291294642857146 3.3637152777777763  30 5.230034722222221  30 7.6171875  C 30 10.015190972222221  28.722098214285715 12.456597222222221  26.166294642857142 14.94140625  L 15.736607142857142 24.70703125  Z " fill-rule="evenodd" />
    </mask>
  </defs>
  <g transform="matrix(1 0 0 1 -1299 -32 )">
    <path d="M 15.736607142857142 24.70703125  C 15.535714285714286 24.90234375  15.290178571428573 25  15 25  C 14.709821428571429 25  14.464285714285715 24.90234375  14.263392857142856 24.70703125  L 3.8169642857142856 14.908854166666668  C 3.7053571428571432 14.82204861111111  3.551897321428572 14.680989583333332  3.356584821428571 14.485677083333332  C 3.1612723214285716 14.290364583333332  2.8515625000000004 13.935004340277779  2.427455357142857 13.419596354166668  C 2.0033482142857144 12.904188368055552  1.6238839285714286 12.375217013888888  1.2890625 11.832682291666666  C 0.9542410714285714 11.290147569444445  0.6556919642857143 10.633680555555555  0.3934151785714286 9.86328125  C 0.13113839285714285 9.092881944444443  0 8.344184027777777  0 7.6171875  C 0 5.230034722222221  0.708705357142857 3.3637152777777763  2.126116071428571 2.0182291666666656  C 3.543526785714286 0.6727430555555552  5.502232142857142 0  8.002232142857144 0  C 8.694196428571429 0  9.400111607142856 0.11664496527777624  10.119977678571429 0.34993489583333426  C 10.83984375 0.5832248263888867  11.509486607142856 0.8978949652777762  12.12890625 1.2939453125  C 12.748325892857146 1.689995659722221  13.281250000000004 2.061631944444442  13.727678571428571 2.4088541666666656  C 14.174107142857144 2.7560763888888866  14.598214285714285 3.125  15 3.515625  C 15.401785714285714 3.125  15.82589285714286 2.7560763888888866  16.27232142857143 2.4088541666666656  C 16.718750000000004 2.061631944444442  17.251674107142858 1.689995659722221  17.87109375 1.2939453125  C 18.490513392857142 0.8978949652777762  19.16015625 0.5832248263888867  19.88002232142857 0.34993489583333426  C 20.599888392857142 0.11664496527777624  21.305803571428573 0  21.997767857142858 0  C 24.497767857142858 0  26.45647321428572 0.6727430555555552  27.87388392857143 2.0182291666666656  C 29.291294642857146 3.3637152777777763  30 5.230034722222221  30 7.6171875  C 30 10.015190972222221  28.722098214285715 12.456597222222221  26.166294642857142 14.94140625  L 15.736607142857142 24.70703125  Z " fill-rule="nonzero" fill="#eda2ba" stroke="none" fill-opacity="0" transform="matrix(1 0 0 1 1299 32 )" />
    <path d="M 15.736607142857142 24.70703125  C 15.535714285714286 24.90234375  15.290178571428573 25  15 25  C 14.709821428571429 25  14.464285714285715 24.90234375  14.263392857142856 24.70703125  L 3.8169642857142856 14.908854166666668  C 3.7053571428571432 14.82204861111111  3.551897321428572 14.680989583333332  3.356584821428571 14.485677083333332  C 3.1612723214285716 14.290364583333332  2.8515625000000004 13.935004340277779  2.427455357142857 13.419596354166668  C 2.0033482142857144 12.904188368055552  1.6238839285714286 12.375217013888888  1.2890625 11.832682291666666  C 0.9542410714285714 11.290147569444445  0.6556919642857143 10.633680555555555  0.3934151785714286 9.86328125  C 0.13113839285714285 9.092881944444443  0 8.344184027777777  0 7.6171875  C 0 5.230034722222221  0.708705357142857 3.3637152777777763  2.126116071428571 2.0182291666666656  C 3.543526785714286 0.6727430555555552  5.502232142857142 0  8.002232142857144 0  C 8.694196428571429 0  9.400111607142856 0.11664496527777624  10.119977678571429 0.34993489583333426  C 10.83984375 0.5832248263888867  11.509486607142856 0.8978949652777762  12.12890625 1.2939453125  C 12.748325892857146 1.689995659722221  13.281250000000004 2.061631944444442  13.727678571428571 2.4088541666666656  C 14.174107142857144 2.7560763888888866  14.598214285714285 3.125  15 3.515625  C 15.401785714285714 3.125  15.82589285714286 2.7560763888888866  16.27232142857143 2.4088541666666656  C 16.718750000000004 2.061631944444442  17.251674107142858 1.689995659722221  17.87109375 1.2939453125  C 18.490513392857142 0.8978949652777762  19.16015625 0.5832248263888867  19.88002232142857 0.34993489583333426  C 20.599888392857142 0.11664496527777624  21.305803571428573 0  21.997767857142858 0  C 24.497767857142858 0  26.45647321428572 0.6727430555555552  27.87388392857143 2.0182291666666656  C 29.291294642857146 3.3637152777777763  30 5.230034722222221  30 7.6171875  C 30 10.015190972222221  28.722098214285715 12.456597222222221  26.166294642857142 14.94140625  L 15.736607142857142 24.70703125  Z " stroke-width="4" stroke="#eda2ba" fill="none" transform="matrix(1 0 0 1 1299 32 )" mask="url(#clip14)" />
  </g>
</svg>