<?xml version="1.0" encoding="utf-8"?>
<svg version="1.1" xmlns:xlink="http://www.w3.org/1999/xlink" width="21px" height="25px" xmlns="http://www.w3.org/2000/svg">
  <g transform="matrix(1 0 0 1 -1362 -31 )">
    <path d="M 17.5 7.142857142857142  C 17.5 8.510044642857142  17.139973958333336 9.774925595238093  16.419921875 10.9375  C 16.848307291666668 11.067708333333332  17.256184895833332 11.244419642857142  17.6435546875 11.467633928571427  C 18.030924479166668 11.690848214285715  18.4365234375 12.03031994047619  18.8603515625 12.486049107142858  C 19.2841796875 12.941778273809524  19.646484375 13.478887648809524  19.947265625 14.097377232142858  C 20.248046875 14.71586681547619  20.498697916666668 15.515718005952378  20.69921875 16.49693080357143  C 20.899739583333332 17.478143601190478  21 18.577938988095237  21 19.796316964285715  C 21 21.228608630952383  20.544270833333332 22.453962053571427  19.6328125 23.472377232142858  C 18.721354166666668 24.490792410714285  17.623046875 25  16.337890625 25  L 4.662109375 25  C 3.376953125 25  2.2786458333333335 24.490792410714285  1.3671875 23.472377232142858  C 0.4557291666666666 22.453962053571427  0 21.228608630952383  0 19.796316964285715  C 0 18.577938988095237  0.10026041666666666 17.478143601190478  0.30078125 16.49693080357143  C 0.5013020833333334 15.515718005952378  0.751953125 14.71586681547619  1.052734375 14.097377232142858  C 1.353515625 13.478887648809524  1.7158203125 12.941778273809524  2.1396484375 12.486049107142858  C 2.5634765625 12.03031994047619  2.969075520833334 11.690848214285715  3.3564453125 11.467633928571427  C 3.743815104166667 11.244419642857142  4.151692708333334 11.067708333333332  4.580078125 10.9375  C 3.8600260416666674 9.774925595238093  3.5 8.510044642857142  3.5 7.142857142857142  C 3.5 6.1755952380952355  3.6845703125 5.252511160714285  4.0537109375 4.373604910714285  C 4.4228515625 3.4946986607142847  4.921875 2.734375  5.55078125 2.0926339285714275  C 6.1796875 1.4508928571428577  6.9248046875 0.9416852678571425  7.7861328125 0.5650111607142849  C 8.6474609375 0.18833705357142738  9.552083333333334 0  10.5 0  C 11.447916666666668 0  12.3525390625 0.18833705357142738  13.2138671875 0.5650111607142849  C 14.0751953125 0.9416852678571425  14.8203125 1.4508928571428577  15.44921875 2.0926339285714275  C 16.078125 2.734375  16.5771484375 3.4946986607142847  16.9462890625 4.373604910714285  C 17.3154296875 5.252511160714285  17.5 6.1755952380952355  17.5 7.142857142857142  Z M 14.2119140625 3.3551897321428577  C 13.186523437500002 2.3088727678571423  11.949218750000002 1.785714285714285  10.5 1.785714285714285  C 9.05078125 1.785714285714285  7.8134765625 2.3088727678571423  6.7880859375 3.3551897321428577  C 5.7626953125 4.401506696428573  5.25 5.6640625  5.25 7.142857142857142  C 5.25 8.621651785714285  5.7626953125 9.884207589285715  6.7880859375 10.930524553571427  C 7.8134765625 11.976841517857142  9.05078125 12.5  10.5 12.5  C 11.949218750000002 12.5  13.186523437500002 11.976841517857142  14.2119140625 10.930524553571427  C 15.2373046875 9.884207589285715  15.75 8.621651785714285  15.75 7.142857142857142  C 15.75 5.6640625  15.2373046875 4.401506696428573  14.2119140625 3.3551897321428577  Z M 4.662109375 23  L 16.337890625 23  C 17.139973958333336 23.214285714285715  17.825846354166668 22.88178943452381  18.3955078125 22.216796875  C 18.965169270833336 21.55180431547619  19.25 20.74497767857143  19.25 19.796316964285715  C 19.25 17.57347470238095  18.892252604166668 15.8203125  18.1767578125 14.536830357142858  C 17.461263020833332 13.253348214285715  16.43359375 12.579055059523808  15.09375 12.513950892857142  C 13.772135416666666 13.695126488095239  12.240885416666668 14.285714285714285  10.5 14.285714285714285  C 8.759114583333334 14.285714285714285  7.227864583333335 13.695126488095239  5.90625 12.513950892857142  C 4.56640625 12.579055059523808  3.538736979166667 13.253348214285715  2.8232421875 14.536830357142858  C 2.1077473958333335 15.8203125  1.75 17.57347470238095  1.75 19.796316964285715  C 1.75 20.74497767857143  2.034830729166667 21.55180431547619  2.6044921875 22.216796875  C 3.174153645833334 22.88178943452381  3.8600260416666674 23.214285714285715  4.662109375 23  Z " fill-rule="nonzero" fill="#000000" stroke="none" transform="matrix(1 0 0 1 1362 31 )" />
  </g>
</svg>