<?xml version="1.0" encoding="utf-8"?>
<svg version="1.1" xmlns:xlink="http://www.w3.org/1999/xlink" width="21px" height="24px" xmlns="http://www.w3.org/2000/svg">
  <g transform="matrix(1 0 0 1 -710 -1071 )">
    <path d="M 4.443359375 9.70982142857143  C 6.320963541666667 10.093750000000002  8.33984375 10.285714285714286  10.5 10.285714285714286  C 12.66015625 10.285714285714286  14.679036458333334 10.093750000000002  16.556640625 9.70982142857143  C 18.434244791666668 9.325892857142854  19.915364583333336 8.75892857142857  21 8.00892857142857  L 21 10.285714285714286  C 21 10.901785714285714  20.530598958333332 11.473214285714285  19.591796875 12  C 18.652994791666668 12.526785714285712  17.376953125 12.944196428571427  15.763671875 13.252232142857142  C 14.150390625 13.560267857142858  12.395833333333334 13.714285714285714  10.5 13.714285714285714  C 8.604166666666668 13.714285714285714  6.849609375 13.560267857142858  5.236328125 13.252232142857142  C 3.623046875 12.944196428571427  2.3470052083333335 12.526785714285712  1.408203125 12  C 0.46940104166666663 11.473214285714285  0 10.901785714285714  0 10.285714285714286  L 0 8.00892857142857  C 1.0846354166666667 8.75892857142857  2.5657552083333335 9.325892857142854  4.443359375 9.70982142857143  Z M 4.443359375 19.995535714285715  C 6.320963541666667 20.37946428571429  8.33984375 20.571428571428573  10.5 20.571428571428573  C 12.66015625 20.571428571428573  14.679036458333334 20.37946428571429  16.556640625 19.995535714285715  C 18.434244791666668 19.611607142857142  19.915364583333336 19.044642857142858  21 18.294642857142858  L 21 20.571428571428573  C 21 21.1875  20.530598958333332 21.758928571428573  19.591796875 22.285714285714285  C 18.652994791666668 22.8125  17.376953125 23.229910714285715  15.763671875 23.53794642857143  C 14.150390625 23.845982142857142  12.395833333333334 24  10.5 24  C 8.604166666666668 24  6.849609375 23.845982142857142  5.236328125 23.53794642857143  C 3.623046875 23.229910714285715  2.3470052083333335 22.8125  1.408203125 22.285714285714285  C 0.46940104166666663 21.758928571428573  0 21.1875  0 20.571428571428573  L 0 18.294642857142858  C 1.0846354166666667 19.044642857142858  2.5657552083333335 19.611607142857142  4.443359375 19.995535714285715  Z M 4.443359375 14.852678571428573  C 6.320963541666667 15.236607142857142  8.33984375 15.428571428571427  10.5 15.428571428571427  C 12.66015625 15.428571428571427  14.679036458333334 15.236607142857142  16.556640625 14.852678571428573  C 18.434244791666668 14.468749999999998  19.915364583333336 13.901785714285714  21 13.151785714285714  L 21 15.428571428571427  C 21 16.044642857142858  20.530598958333332 16.616071428571427  19.591796875 17.142857142857142  C 18.652994791666668 17.669642857142858  17.376953125 18.087053571428573  15.763671875 18.395089285714285  C 14.150390625 18.703125  12.395833333333334 18.857142857142858  10.5 18.857142857142858  C 8.604166666666668 18.857142857142858  6.849609375 18.703125  5.236328125 18.395089285714285  C 3.623046875 18.087053571428573  2.3470052083333335 17.669642857142858  1.408203125 17.142857142857142  C 0.46940104166666663 16.616071428571427  0 16.044642857142858  0 15.428571428571427  L 0 13.151785714285714  C 1.0846354166666667 13.901785714285714  2.5657552083333335 14.468749999999998  4.443359375 14.852678571428573  Z M 5.236328125 0.4620535714285703  C 6.849609375 0.15401785714285676  8.604166666666668 0  10.5 0  C 12.395833333333334 0  14.150390625 0.15401785714285676  15.763671875 0.4620535714285703  C 17.376953125 0.7700892857142865  18.652994791666668 1.1874999999999991  19.591796875 1.7142857142857135  C 20.530598958333332 2.241071428571428  21 2.8125  21 3.4285714285714297  L 21 5.142857142857143  C 21 5.75892857142857  20.530598958333332 6.33035714285714  19.591796875 6.857142857142857  C 18.652994791666668 7.383928571428571  17.376953125 7.8013392857142865  15.763671875 8.109375  C 14.150390625 8.417410714285714  12.395833333333334 8.57142857142857  10.5 8.57142857142857  C 8.604166666666668 8.57142857142857  6.849609375 8.417410714285714  5.236328125 8.109375  C 3.623046875 7.8013392857142865  2.3470052083333335 7.383928571428571  1.408203125 6.857142857142857  C 0.46940104166666663 6.33035714285714  0 5.75892857142857  0 5.142857142857143  L 0 3.4285714285714297  C 0 2.8125  0.46940104166666663 2.241071428571428  1.408203125 1.7142857142857135  C 2.3470052083333335 1.1874999999999991  3.623046875 0.7700892857142865  5.236328125 0.4620535714285703  Z " fill-rule="nonzero" fill="#ff685b" stroke="none" transform="matrix(1 0 0 1 710 1071 )" />
  </g>
</svg>