<?xml version="1.0" encoding="utf-8"?>
<svg version="1.1" xmlns:xlink="http://www.w3.org/1999/xlink" width="34px" height="27px" xmlns="http://www.w3.org/2000/svg">
  <g transform="matrix(1 0 0 1 -1295 -2516 )">
    <path d="M 29.98730964467005 4.260937500000001  C 31.3248730964467 4.1203125  32.662436548223354 3.7687499999999954  34 3.2062500000000007  C 33.03637901861253 4.584374999999997  31.871404399323183 5.758593749999999  30.50507614213198 6.728906250000001  C 30.519458544839257 6.925781249999999  30.526649746192895 7.221093749999997  30.526649746192895 7.614843749999999  C 30.526649746192895 9.442968749999997  30.253384094754658 11.267578124999998  29.70685279187817 13.088671875  C 29.160321489001692 14.909765624999999  28.329737732656515 16.65703125  27.21510152284264 18.33046875  C 26.100465313028767 20.00390625  24.773688663282574 21.483984375  23.23477157360406 22.770703125  C 21.69585448392555 24.057421875  19.84052453468697 25.083984375  17.668781725888326 25.850390625  C 15.497038917089679 26.616796875  13.17428087986464 27  10.700507614213198 27  C 6.802876480541456 27  3.2360406091370555 25.98046875  0 23.94140625  C 0.5033840947546534 23.997656250000002  1.0642978003384096 24.02578125  1.6827411167512691 24.02578125  C 4.918781725888326 24.02578125  7.802453468697124 23.05546875  10.333756345177665 21.11484375  C 8.823604060913706 21.086718749999996  7.4716582064297805 20.633203124999998  6.277918781725889 19.754296875  C 5.084179357021997 18.875390624999998  4.264382402707277 17.753906249999996  3.818527918781726 16.38984375  C 4.293147208121828 16.46015625  4.731810490693741 16.4953125  5.134517766497463 16.4953125  C 5.752961082910321 16.4953125  6.364213197969542 16.41796875  6.968274111675127 16.26328125  C 5.357445008460238 15.93984375  4.023477157360406 15.155859374999999  2.9663705583756346 13.911328125  C 1.909263959390863 12.666796875  1.3807106598984775 11.221875  1.380710659898477 9.576562500000001  L 1.380710659898477 9.4921875  C 2.358714043993232 10.026562499999999  3.4086294416243654 10.314843749999998  4.530456852791879 10.357031249999999  C 3.581218274111675 9.738281249999998  2.8261421319796955 8.929687499999998  2.2652284263959395 7.931249999999999  C 1.7043147208121827 6.932812499999995  1.4238578680203047 5.849999999999997  1.4238578680203047 4.682812500000001  C 1.4238578680203047 3.445312499999999  1.7402707275803724 2.2992187500000014  2.3730964467005076 1.2445312500000012  C 4.11336717428088 3.339843749999999  6.231175972927243 5.016796875  8.726522842639595 6.275390625  C 11.221869712351946 7.533984375  13.893401015228427 8.233593749999999  16.741116751269036 8.37421875  C 16.62605752961083 7.839843749999998  16.568527918781726 7.319531249999997  16.568527918781726 6.813281249999999  C 16.568527918781726 4.928906249999995  17.248096446700508 3.322265625  18.60723350253807 1.9933593750000007  C 19.966370558375633 0.6644531250000012  21.609560067681898 0  23.536802030456855 0  C 25.55033840947547 0  27.24746192893401 0.7171875000000012  28.628172588832484 2.1515625000000007  C 30.19585448392555 1.8562499999999993  31.67005076142132 1.3078125000000007  33.0507614213198 0.5062500000000012  C 32.518612521150594 2.123437499999996  31.497461928934015 3.375  29.98730964467005 4.260937500000001  Z " fill-rule="nonzero" fill="#fafafa" stroke="none" transform="matrix(1 0 0 1 1295 2516 )" />
  </g>
</svg>